<?xml version="1.0" standalone="no"?>
<!DOCTYPE svg PUBLIC "-//W3C//DTD SVG 20010904//EN"
 "http://www.w3.org/TR/2001/REC-SVG-20010904/DTD/svg10.dtd">
<svg version="1.0" xmlns="http://www.w3.org/2000/svg"
 width="300.000000pt" height="300.000000pt" viewBox="0 0 300.000000 300.000000"
 preserveAspectRatio="xMidYMid meet">
<metadata>
Created by potrace 1.10, written by Peter Selinger 2001-2011
</metadata>
<g transform="translate(0.000000,300.000000) scale(0.100000,-0.100000)"
fill="#000000" stroke="none">
<path d="M1470 2699 c-132 -17 -255 -107 -323 -237 -73 -139 -107 -341 -88
-528 6 -59 10 -108 8 -108 -1 -1 -20 -10 -41 -21 -71 -36 -92 -99 -61 -186 15
-40 15 -49 -2 -107 l-18 -64 -37 6 c-47 8 -133 40 -175 65 -17 11 -44 41 -60
68 -23 40 -28 59 -28 116 0 63 2 71 28 93 41 35 108 34 136 -2 25 -32 28 -96
5 -118 -16 -17 -25 -19 -61 -16 -28 2 -30 -16 -4 -30 60 -32 133 10 149 86 25
116 -43 204 -158 204 -164 -1 -248 -132 -210 -330 28 -148 141 -251 326 -296
38 -9 70 -18 72 -19 2 -2 -11 -32 -29 -66 -43 -88 -181 -225 -269 -269 -94
-48 -179 -53 -255 -15 -83 40 -110 86 -110 186 0 72 2 80 29 108 55 57 169 59
213 4 43 -53 42 -125 -2 -169 -30 -29 -54 -30 -89 -3 -19 15 -26 30 -26 55 0
35 -13 46 -24 18 -14 -36 -5 -74 25 -109 27 -30 37 -35 74 -35 138 0 199 232
88 332 -49 44 -167 62 -254 38 -53 -15 -113 -72 -139 -132 -31 -73 -25 -189
14 -266 38 -75 98 -137 165 -169 52 -26 65 -28 171 -27 96 0 125 4 175 24 179
70 312 206 415 424 49 103 77 133 102 108 6 -6 21 -83 34 -172 30 -211 49
-300 90 -438 63 -207 140 -324 250 -378 148 -72 292 2 319 163 30 183 -215
335 -289 179 -20 -42 -20 -67 -2 -110 26 -63 105 -98 136 -61 11 13 8 15 -18
15 -60 0 -97 94 -52 135 26 24 60 14 99 -30 22 -25 31 -46 31 -71 0 -72 -45
-134 -98 -134 -28 0 -101 50 -129 89 -93 125 -133 308 -133 606 0 198 9 255
41 255 11 0 51 -31 92 -72 188 -186 445 -347 677 -424 77 -25 99 -28 230 -28
136 -1 148 1 200 25 74 34 120 76 154 139 26 47 28 60 24 120 -16 224 -298
362 -490 241 -58 -37 -93 -104 -85 -163 23 -172 267 -267 347 -135 44 71 6
167 -65 167 -33 0 -65 -21 -65 -43 0 -8 4 -7 12 1 15 15 61 15 76 0 22 -22 14
-75 -14 -97 -73 -57 -204 17 -204 115 0 51 60 94 133 94 138 0 254 -112 232
-226 -10 -57 -69 -109 -140 -125 -145 -32 -393 53 -571 195 -91 74 -191 173
-182 181 3 4 49 10 102 15 137 13 219 35 322 85 140 68 205 144 220 259 23
167 -148 302 -319 252 -70 -20 -111 -55 -132 -111 -23 -59 -13 -109 30 -152
26 -26 41 -33 72 -33 36 0 63 13 63 32 0 4 -12 5 -28 2 -43 -9 -82 27 -82 75
0 79 69 121 161 97 174 -45 146 -236 -43 -294 -130 -40 -245 -37 -405 10 -40
11 -73 25 -73 29 0 5 35 47 78 93 189 204 302 448 290 631 -6 94 -49 187 -111
240 -119 102 -346 165 -517 144z m66 -953 c38 -38 44 -77 19 -126 -19 -37 -43
-50 -95 -50 -107 0 -140 146 -45 198 40 22 85 14 121 -22z"/>
<path d="M1415 1696 c-23 -17 -14 -43 19 -55 29 -12 67 -4 83 17 31 38 -57 71
-102 38z"/>
</g>
</svg>
